<?xml version="1.0" encoding="us-ascii" standalone="no"?><svg xmlns="http://www.w3.org/2000/svg" xmlns:xlink="http://www.w3.org/1999/xlink" contentStyleType="text/css" height="637px" preserveAspectRatio="none" style="width:1185px;height:637px;background:#FFFFFF;" version="1.1" viewBox="0 0 1185 637" width="1185px" zoomAndPan="magnify"><defs/><g><ellipse cx="820" cy="16" fill="#222222" rx="10" ry="10" style="stroke:none;stroke-width:1.0;"/><g id="WaitingRecommendation"><rect fill="#F1F1F1" height="50.2656" rx="12.5" ry="12.5" style="stroke:#181818;stroke-width:0.5;" width="203" x="718.5" y="103"/><line style="stroke:#181818;stroke-width:0.5;" x1="718.5" x2="921.5" y1="129.2969" y2="129.2969"/><text fill="#000000" font-family="sans-serif" font-size="14" lengthAdjust="spacing" textLength="183" x="728.5" y="120.9951">WaitingRecommendation</text><text fill="#000000" font-family="sans-serif" font-size="12" lengthAdjust="spacing" textLength="174" x="723.5" y="145.4355">waiting response from agent</text></g><g id="WaitingUserDecision"><rect fill="#F1F1F1" height="50.2656" rx="12.5" ry="12.5" style="stroke:#181818;stroke-width:0.5;" width="167" x="593.5" y="230"/><line style="stroke:#181818;stroke-width:0.5;" x1="593.5" x2="760.5" y1="256.2969" y2="256.2969"/><text fill="#000000" font-family="sans-serif" font-size="14" lengthAdjust="spacing" textLength="147" x="603.5" y="247.9951">WaitingUserDecision</text><text fill="#000000" font-family="sans-serif" font-size="12" lengthAdjust="spacing" textLength="106" x="598.5" y="272.4355">waiting user input</text></g><ellipse cx="465" cy="621" fill="none" rx="10" ry="10" style="stroke:#222222;stroke-width:1.0;"/><ellipse cx="465.5" cy="621.5" fill="#222222" rx="6" ry="6" style="stroke:none;stroke-width:1.0;"/><g id="WaitingDeteils"><rect fill="#F1F1F1" height="50.2656" rx="12.5" ry="12.5" style="stroke:#181818;stroke-width:0.5;" width="194" x="712" y="357"/><line style="stroke:#181818;stroke-width:0.5;" x1="712" x2="906" y1="383.2969" y2="383.2969"/><text fill="#000000" font-family="sans-serif" font-size="14" lengthAdjust="spacing" textLength="106" x="756" y="374.9951">WaitingDeteils</text><text fill="#000000" font-family="sans-serif" font-size="12" lengthAdjust="spacing" textLength="174" x="717" y="399.4355">waiting response from agent</text></g><g id="WaitingUserDecisionOnExplanation"><rect fill="#F1F1F1" height="50.2656" rx="12.5" ry="12.5" style="stroke:#181818;stroke-width:0.5;" width="272" x="723" y="484"/><line style="stroke:#181818;stroke-width:0.5;" x1="723" x2="995" y1="510.2969" y2="510.2969"/><text fill="#000000" font-family="sans-serif" font-size="14" lengthAdjust="spacing" textLength="252" x="733" y="501.9951">WaitingUserDecisionOnExplanation</text><text fill="#000000" font-family="sans-serif" font-size="12" lengthAdjust="spacing" textLength="106" x="728" y="526.4355">waiting user input</text></g><g id="WaitingComparativeExplanation"><rect fill="#F1F1F1" height="50.2656" rx="12.5" ry="12.5" style="stroke:#181818;stroke-width:0.5;" width="253" x="338.5" y="357"/><line style="stroke:#181818;stroke-width:0.5;" x1="338.5" x2="591.5" y1="383.2969" y2="383.2969"/><text fill="#000000" font-family="sans-serif" font-size="14" lengthAdjust="spacing" textLength="233" x="348.5" y="374.9951">WaitingComparativeExplanation</text><text fill="#000000" font-family="sans-serif" font-size="12" lengthAdjust="spacing" textLength="174" x="343.5" y="399.4355">waiting response from agent</text></g><g id="WaitingUserDecisionOnComparison1"><rect fill="#F1F1F1" height="50.2656" rx="12.5" ry="12.5" style="stroke:#181818;stroke-width:0.5;" width="282" x="7" y="484"/><line style="stroke:#181818;stroke-width:0.5;" x1="7" x2="289" y1="510.2969" y2="510.2969"/><text fill="#000000" font-family="sans-serif" font-size="14" lengthAdjust="spacing" textLength="262" x="17" y="501.9951">WaitingUserDecisionOnComparison1</text><text fill="#000000" font-family="sans-serif" font-size="12" lengthAdjust="spacing" textLength="106" x="12" y="526.4355">waiting user input</text></g><g id="WaitingUserDecisionOnComparison2"><rect fill="#F1F1F1" height="50.2656" rx="12.5" ry="12.5" style="stroke:#181818;stroke-width:0.5;" width="281" x="324.5" y="484"/><line style="stroke:#181818;stroke-width:0.5;" x1="324.5" x2="605.5" y1="510.2969" y2="510.2969"/><text fill="#000000" font-family="sans-serif" font-size="14" lengthAdjust="spacing" textLength="261" x="334.5" y="501.9951">WaitingUserDecisionOnComparison2</text><text fill="#000000" font-family="sans-serif" font-size="12" lengthAdjust="spacing" textLength="106" x="329.5" y="526.4355">waiting user input</text></g><!--link *start* to WaitingRecommendation--><g id="link_*start*_WaitingRecommendation"><path d="M820,26.002 C820,41.458 820,73.685 820,97.6 " fill="none" id="*start*-to-WaitingRecommendation" style="stroke:#181818;stroke-width:1.0;"/><polygon fill="#181818" points="820,102.873,824,93.873,820,97.873,816,93.873,820,102.873" style="stroke:#181818;stroke-width:1.0;"/><text fill="#000000" font-family="sans-serif" font-size="13" lengthAdjust="spacing" textLength="59" x="821" y="69.0669">Query(Q)</text></g><!--link WaitingRecommendation to WaitingUserDecision--><g id="link_WaitingRecommendation_WaitingUserDecision"><path d="M718.393,133.527 C640.939,139.361 543.384,152.675 518,183 C491.501,214.657 538.518,232.744 588.158,242.729 " fill="none" id="WaitingRecommendation-to-WaitingUserDecision" style="stroke:#181818;stroke-width:1.0;"/><polygon fill="#181818" points="593.279,243.73,585.2128,238.0787,588.3718,242.7714,583.6791,245.9303,593.279,243.73" style="stroke:#181818;stroke-width:1.0;"/><text fill="#000000" font-family="sans-serif" font-size="13" lengthAdjust="spacing" textLength="133" x="519" y="196.0669">Recommendation(R)</text></g><!--link WaitingUserDecision to WaitingRecommendation--><g id="link_WaitingUserDecision_WaitingRecommendation"><path d="M677.049,229.853 C678.279,214.846 682.155,196.002 693,183 C702.514,171.594 714.867,162.546 728.127,155.382 " fill="none" id="WaitingUserDecision-to-WaitingRecommendation" style="stroke:#181818;stroke-width:1.0;"/><polygon fill="#181818" points="732.656,153.024,722.8259,153.6308,728.2207,155.3323,726.5192,160.7272,732.656,153.024" style="stroke:#181818;stroke-width:1.0;"/><text fill="#000000" font-family="sans-serif" font-size="13" lengthAdjust="spacing" textLength="82" x="694" y="196.0669">Collision(R,F)</text></g><!--link WaitingUserDecision to WaitingRecommendation--><g id="link_WaitingUserDecision_WaitingRecommendation"><path d="M737.931,229.94 C753.193,221.979 768.703,212.013 781,200 C793.111,188.169 802.457,171.763 808.959,157.702 " fill="none" id="WaitingUserDecision-to-WaitingRecommendation-1" style="stroke:#181818;stroke-width:1.0;"/><polygon fill="#181818" points="811.055,153.033,803.7189,159.6043,809.0066,157.5941,811.0167,162.8818,811.055,153.033" style="stroke:#181818;stroke-width:1.0;"/><text fill="#000000" font-family="sans-serif" font-size="13" lengthAdjust="spacing" textLength="114" x="795" y="196.0669">Disapprouve(R,M)</text></g><!--link WaitingUserDecision to *end*--><g id="link_WaitingUserDecision_*end*"><path d="M677.969,280.065 C678.887,331.046 674.959,451.968 623,534 C589.668,586.6249 512.36,609.4527 479.839,616.9691 " fill="none" id="WaitingUserDecision-to-*end*" style="stroke:#181818;stroke-width:1.0;"/><polygon fill="#181818" points="474.661,618.1226,484.3154,620.07,479.5414,617.0354,482.5759,612.2614,474.661,618.1226" style="stroke:#181818;stroke-width:1.0;"/><text fill="#000000" font-family="sans-serif" font-size="13" lengthAdjust="spacing" textLength="36" x="663" y="450.0669">Ok(R)</text></g><!--link WaitingUserDecision to WaitingDeteils--><g id="link_WaitingUserDecision_WaitingDeteils"><path d="M702.451,280.101 C724.638,301.112 756.807,331.575 779.987,353.526 " fill="none" id="WaitingUserDecision-to-WaitingDeteils" style="stroke:#181818;stroke-width:1.0;"/><polygon fill="#181818" points="783.627,356.973,779.8439,347.8797,779.997,353.5345,774.3423,353.6876,783.627,356.973" style="stroke:#181818;stroke-width:1.0;"/><text fill="#000000" font-family="sans-serif" font-size="13" lengthAdjust="spacing" textLength="48" x="752" y="323.0669">Why(R)</text></g><!--link WaitingDeteils to WaitingUserDecisionOnExplanation--><g id="link_WaitingDeteils_WaitingUserDecisionOnExplanation"><path d="M818.641,407.101 C826.872,427.68 838.73,457.325 847.464,479.16 " fill="none" id="WaitingDeteils-to-WaitingUserDecisionOnExplanation" style="stroke:#181818;stroke-width:1.0;"/><polygon fill="#181818" points="849.389,483.973,849.7604,474.1311,847.532,479.3306,842.3326,477.1023,849.389,483.973" style="stroke:#181818;stroke-width:1.0;"/><text fill="#000000" font-family="sans-serif" font-size="13" lengthAdjust="spacing" textLength="75" x="838" y="450.0669">Details(R,E)</text></g><!--link WaitingUserDecisionOnExplanation to WaitingDeteils--><g id="link_WaitingUserDecisionOnExplanation_WaitingDeteils"><path d="M776.052,483.848 C762.935,476.374 751.061,466.644 743,454 C732.908,438.17 744.142,422.656 760.033,410.187 " fill="none" id="WaitingUserDecisionOnExplanation-to-WaitingDeteils" style="stroke:#181818;stroke-width:1.0;"/><polygon fill="#181818" points="764.163,407.084,754.5648,409.2917,760.1654,410.0872,759.3699,415.6878,764.163,407.084" style="stroke:#181818;stroke-width:1.0;"/><text fill="#000000" font-family="sans-serif" font-size="13" lengthAdjust="spacing" textLength="79" x="744" y="450.0669">Unclear(R,E)</text></g><!--link WaitingUserDecisionOnExplanation to *end*--><g id="link_WaitingUserDecisionOnExplanation_*end*"><path d="M808.244,534.0527 C774.07,549.4085 727.626,568.6763 685,581 C609.659,602.782 516.098,614.4844 480.091,618.4419 " fill="none" id="WaitingUserDecisionOnExplanation-to-*end*" style="stroke:#181818;stroke-width:1.0;"/><polygon fill="#181818" points="474.818,619.0109,484.1956,622.0209,479.7891,618.4738,483.3362,614.0672,474.818,619.0109" style="stroke:#181818;stroke-width:1.0;"/><text fill="#000000" font-family="sans-serif" font-size="13" lengthAdjust="spacing" textLength="48" x="735" y="577.0669">Ok(R,E)</text></g><!--link WaitingUserDecisionOnExplanation to WaitingRecommendation--><g id="link_WaitingUserDecisionOnExplanation_WaitingRecommendation"><path d="M897.454,483.839 C907.235,475.648 916.519,465.59 922,454 C947.748,399.552 949.375,234.411 918,183 C911.255,171.948 901.379,162.99 890.46,155.786 " fill="none" id="WaitingUserDecisionOnExplanation-to-WaitingRecommendation" style="stroke:#181818;stroke-width:1.0;"/><polygon fill="#181818" points="886.061,153.009,891.5373,161.1949,890.2894,155.6775,895.8069,154.4295,886.061,153.009" style="stroke:#181818;stroke-width:1.0;"/><text fill="#000000" font-family="sans-serif" font-size="13" lengthAdjust="spacing" textLength="94" x="943" y="323.0669">Collision(R,E,F)</text></g><!--link WaitingUserDecisionOnExplanation to WaitingRecommendation--><g id="link_WaitingUserDecisionOnExplanation_WaitingRecommendation"><path d="M912.717,483.897 C976.895,451.174 1072.51,387.758 1046,310 C1022.99,242.519 1004.48,226.51 948,183 C933.592,171.9 916.565,162.654 899.713,155.133 " fill="none" id="WaitingUserDecisionOnExplanation-to-WaitingRecommendation-1" style="stroke:#181818;stroke-width:1.0;"/><polygon fill="#181818" points="894.967,153.057,901.6093,160.3289,899.5478,155.061,904.8157,152.9996,894.967,153.057" style="stroke:#181818;stroke-width:1.0;"/><text fill="#000000" font-family="sans-serif" font-size="13" lengthAdjust="spacing" textLength="126" x="1051" y="323.0669">Disapprouve(R,E,M)</text></g><!--link WaitingUserDecision to WaitingComparativeExplanation--><g id="link_WaitingUserDecision_WaitingComparativeExplanation"><path d="M616.948,280.083 C597.653,288.648 576.497,298.937 558,310 C536.786,322.688 514.727,339.356 497.419,353.354 " fill="none" id="WaitingUserDecision-to-WaitingComparativeExplanation" style="stroke:#181818;stroke-width:1.0;"/><polygon fill="#181818" points="493.124,356.851,502.6286,354.2698,497.0012,353.6938,497.5772,348.0664,493.124,356.851" style="stroke:#181818;stroke-width:1.0;"/><text fill="#000000" font-family="sans-serif" font-size="13" lengthAdjust="spacing" textLength="73" x="559" y="323.0669">WhyNot(R')</text></g><!--link WaitingComparativeExplanation to WaitingUserDecisionOnComparison1--><g id="link_WaitingComparativeExplanation_WaitingUserDecisionOnComparison1"><path d="M403.879,407.101 C349.281,428.631 269.512,460.085 213.592,482.136 " fill="none" id="WaitingComparativeExplanation-to-WaitingUserDecisionOnComparison1" style="stroke:#181818;stroke-width:1.0;"/><polygon fill="#181818" points="208.933,483.973,218.7729,484.3924,213.5844,482.1387,215.8381,476.9502,208.933,483.973" style="stroke:#181818;stroke-width:1.0;"/><text fill="#000000" font-family="sans-serif" font-size="13" lengthAdjust="spacing" textLength="124" x="327" y="450.0669">Comparison(R,R',E)</text></g><!--link WaitingUserDecisionOnComparison1 to *end*--><g id="link_WaitingUserDecisionOnComparison1_*end*"><path d="M161.224,534.0749 C171.328,550.0613 186.775,570.0523 206,581 C248.329,605.1037 401.207,616.1781 449.954,619.1495 " fill="none" id="WaitingUserDecisionOnComparison1-to-*end*" style="stroke:#181818;stroke-width:1.0;"/><polygon fill="#181818" points="455.114,619.4572,446.3689,614.9269,450.1229,619.1586,445.8912,622.9126,455.114,619.4572" style="stroke:#181818;stroke-width:1.0;"/><text fill="#000000" font-family="sans-serif" font-size="13" lengthAdjust="spacing" textLength="48" x="207" y="577.0669">Ok(R,E)</text></g><!--link WaitingUserDecisionOnComparison1 to *end*--><g id="link_WaitingUserDecisionOnComparison1_*end*"><path d="M206.042,534.0062 C241.79,548.419 288.718,566.675 331,581 C373.882,595.5284 425.559,609.627 450.343,616.1822 " fill="none" id="WaitingUserDecisionOnComparison1-to-*end*-1" style="stroke:#181818;stroke-width:1.0;"/><polygon fill="#181818" points="455.489,617.537,447.8038,611.3776,450.6537,616.2641,445.7672,619.114,455.489,617.537" style="stroke:#181818;stroke-width:1.0;"/><text fill="#000000" font-family="sans-serif" font-size="13" lengthAdjust="spacing" textLength="74" x="332" y="577.0669">Prefer(R',R)</text></g><!--link WaitingComparativeExplanation to WaitingUserDecisionOnComparison2--><g id="link_WaitingComparativeExplanation_WaitingUserDecisionOnComparison2"><path d="M465,407.101 C465,427.593 465,457.076 465,478.884 " fill="none" id="WaitingComparativeExplanation-to-WaitingUserDecisionOnComparison2" style="stroke:#181818;stroke-width:1.0;"/><polygon fill="#181818" points="465,483.973,469,474.973,465,478.973,461,474.973,465,483.973" style="stroke:#181818;stroke-width:1.0;"/><text fill="#000000" font-family="sans-serif" font-size="13" lengthAdjust="spacing" textLength="75" x="466" y="450.0669">Invalid(R',E)</text></g><!--link WaitingUserDecisionOnComparison2 to *end*--><g id="link_WaitingUserDecisionOnComparison2_*end*"><path d="M436.696,534.2646 C428.775,542.7708 421.19,552.979 417,564 C414.315,571.0623 413.753,574.1778 417,581 C424.106,595.9304 440.033,607.0109 451.596,613.4704 " fill="none" id="WaitingUserDecisionOnComparison2-to-*end*" style="stroke:#181818;stroke-width:1.0;"/><polygon fill="#181818" points="456.247,615.9536,450.1909,608.1868,451.8361,613.5991,446.4237,615.2443,456.247,615.9536" style="stroke:#181818;stroke-width:1.0;"/><text fill="#000000" font-family="sans-serif" font-size="13" lengthAdjust="spacing" textLength="48" x="418" y="577.0669">Ok(R,E)</text></g><!--link WaitingUserDecisionOnComparison2 to *end*--><g id="link_WaitingUserDecisionOnComparison2_*end*"><path d="M468.99,534.3089 C470.754,548.0163 472.188,565.4588 471,581 C470.367,589.2735 468.99,598.4486 467.715,605.8201 " fill="none" id="WaitingUserDecisionOnComparison2-to-*end*-1" style="stroke:#181818;stroke-width:1.0;"/><polygon fill="#181818" points="466.773,611.0606,472.3016,602.9099,467.6572,606.1394,464.4277,601.4951,466.773,611.0606" style="stroke:#181818;stroke-width:1.0;"/><text fill="#000000" font-family="sans-serif" font-size="13" lengthAdjust="spacing" textLength="77" x="473" y="577.0669">Override(R')</text></g><!--SRC=[hLInReCm4Dtv2cz0bGnbPEWIgDIXJOCKPQWwM719h89jsOQMlwy1XK1bm8awShnxxzwzWpF90471LOqoaAaWN156dO-7JxHUFw439ehGKm8fAmgW6MxUeX3jIX2rj_CT8o14trqP2P2SKGdeA5Y1y0ceSXnpqr1lBq54a1BPgOs1NjBB3d5NqL9N4Q6yL2PSgzFu2z7sQu9hrlk6vNcByfBLy-tj4P6OSy7A2ZJ1g-yiCKIWWEHIjnxEzM3WItrYRriQ__0SqruN5DPmhHd_fPZFQudRTl7ZWOm6zpJD0OlHZFCKro2jMsnoZIUIjMSRnnpR1BrX1ST24rGmZaxd_iQKbxZzJ6RemdStBpDvHXsUI4OVsorTdhIjn9tS-g3B_a26KfRfcblU1Hn1tv6xIln_C1veoXTQuPnadfNdu1xFmUsUHoqL2A5_vysT_080]--></g></svg>